name rise30.3154peak39.0474fall46.5389.mot
datacolumns 19
datarows 20
range 10.42329900000000 10.45497100000000
endheader
time	ground_force1_vx	ground_force1_vy	ground_force1_vz	ground_force1_px	ground_force1_py	ground_force1_pz	ground_force2_vx	ground_force2_vy	ground_force2_vz	ground_force2_px	ground_force2_py	ground_force2_pz	ground_torque1_x	ground_torque1_y	ground_torque1_z	ground_torque2_x	ground_torque2_y	ground_torque2_z	
10.42329900000000	-5.55840600000000	45.39081600000000	-7.88422600000000	0.32416200000000	0.00000000000000	0.09639200000000	-44.25797200000000	773.27679400000000	-54.19139600000000	0.16607400000000	0.00000000000000	-0.09623700000000	0.00000000000000	-5.69836700000000	0.00000000000000	0.00000000000000	-25.21582000000000	0.00000000000000	
10.42496500000000	-5.99151500000000	53.51177800000000	-8.81164900000000	0.33026900000000	0.00000000000000	0.09733200000000	-44.79784700000000	770.66259100000002	-53.91607400000000	0.16508100000000	0.00000000000000	-0.09613100000000	0.00000000000000	-6.45201500000000	0.00000000000000	0.00000000000000	-25.11578800000000	0.00000000000000	
10.42662900000000	-6.28956100000000	61.81256200000000	-9.63393300000000	0.33580400000000	0.00000000000000	0.09816100000000	-45.35944500000000	767.94141000000002	-53.62674700000000	0.16409200000000	0.00000000000000	-0.09602300000000	0.00000000000000	-7.14537300000000	0.00000000000000	0.00000000000000	-25.01818500000000	0.00000000000000	
10.42829600000000	-6.43648500000000	70.19091000000000	-10.32974400000000	0.34086400000000	0.00000000000000	0.09890100000000	-45.94246100000000	765.10981500000003	-53.32300800000000	0.16310800000000	0.00000000000000	-0.09591100000000	0.00000000000000	-7.76157600000000	0.00000000000000	0.00000000000000	-24.92296700000000	0.00000000000000	
10.42996300000000	-6.42316200000000	78.56684700000000	-10.88517100000000	0.34552800000000	0.00000000000000	0.09956500000000	-46.54646300000000	762.16427499999998	-53.00444000000000	0.16213000000000	0.00000000000000	-0.09579700000000	0.00000000000000	-8.28896600000000	0.00000000000000	0.00000000000000	-24.83006000000000	0.00000000000000	
10.43162700000000	-6.24723000000000	86.88542000000000	-11.29377700000000	0.34985300000000	0.00000000000000	0.10016700000000	-47.17089200000000	759.10117400000001	-52.67062300000000	0.16116000000000	0.00000000000000	-0.09567900000000	0.00000000000000	-8.72126600000000	0.00000000000000	0.00000000000000	-24.73936300000000	0.00000000000000	
10.43330000000000	-5.91239100000000	95.11690600000000	-11.55603200000000	0.35388800000000	0.00000000000000	0.10071500000000	-47.81505800000000	755.91682200000002	-52.32113400000000	0.16019800000000	0.00000000000000	-0.09555800000000	0.00000000000000	-9.05728600000000	0.00000000000000	0.00000000000000	-24.65074900000000	0.00000000000000	
10.43496000000000	-5.42735000000000	103.25491100000001	-11.67827700000000	0.35767100000000	0.00000000000000	0.10121700000000	-48.47814100000000	752.60747100000003	-51.95555100000000	0.15924700000000	0.00000000000000	-0.09543400000000	0.00000000000000	-9.30026400000000	0.00000000000000	0.00000000000000	-24.56406200000000	0.00000000000000	
10.43662900000000	-4.80452100000000	111.31287300000000	-11.67138800000000	0.36123400000000	0.00000000000000	0.10168000000000	-49.15918700000000	749.16932699999995	-51.57345600000000	0.15830500000000	0.00000000000000	-0.09530600000000	0.00000000000000	-9.45695200000000	0.00000000000000	0.00000000000000	-24.47912100000000	0.00000000000000	
10.43829400000000	-4.05866300000000	119.31954100000000	-11.54930100000000	0.36460100000000	0.00000000000000	0.10210900000000	-49.85711400000000	745.59856300000001	-51.17443900000000	0.15737600000000	0.00000000000000	-0.09517500000000	0.00000000000000	-9.53656700000000	0.00000000000000	0.00000000000000	-24.39571600000000	0.00000000000000	
10.43996600000000	-3.20556300000000	127.31398600000000	-11.32754300000000	0.36779500000000	0.00000000000000	0.10250800000000	-50.57070700000000	741.89133600000002	-50.75809800000000	0.15646000000000	0.00000000000000	-0.09504000000000	0.00000000000000	-9.54972700000000	0.00000000000000	0.00000000000000	-24.31361400000000	0.00000000000000	
10.44163200000000	-2.26086700000000	135.34061800000001	-11.02189500000000	0.37083200000000	0.00000000000000	0.10288100000000	-51.29862200000000	738.04380400000002	-50.32404700000000	0.15555800000000	0.00000000000000	-0.09490100000000	0.00000000000000	-9.50744900000000	0.00000000000000	0.00000000000000	-24.23255500000000	0.00000000000000	
10.44329800000000	-1.23912000000000	143.44463300000001	-10.64725900000000	0.37372800000000	0.00000000000000	0.10323000000000	-52.03938700000000	734.05214300000000	-49.87191700000000	0.15467100000000	0.00000000000000	-0.09475900000000	0.00000000000000	-9.42028500000000	0.00000000000000	0.00000000000000	-24.15225600000000	0.00000000000000	
10.44496300000000	-0.15307300000000	151.66814099999999	-10.21679200000000	0.37649600000000	0.00000000000000	0.10355900000000	-52.79140600000000	729.91256299999998	-49.40135900000000	0.15380000000000	0.00000000000000	-0.09461300000000	0.00000000000000	-9.29764400000000	0.00000000000000	0.00000000000000	-24.07240800000000	0.00000000000000	
10.44663100000000	0.98676100000000	160.04718500000001	-9.74132600000000	0.37914600000000	0.00000000000000	0.10386900000000	-53.55295900000000	725.62133100000005	-48.91204800000000	0.15294600000000	0.00000000000000	-0.09446300000000	0.00000000000000	-9.14731400000000	0.00000000000000	0.00000000000000	-23.99268300000000	0.00000000000000	
10.44829200000000	2.17229600000000	168.60969399999999	-9.22906100000000	0.38168800000000	0.00000000000000	0.10416200000000	-54.32220700000000	721.17478600000004	-48.40369000000000	0.15211100000000	0.00000000000000	-0.09430900000000	0.00000000000000	-8.97519700000000	0.00000000000000	0.00000000000000	-23.91272900000000	0.00000000000000	
10.44996500000000	3.39783300000000	177.37438599999999	-8.68552100000000	0.38412900000000	0.00000000000000	0.10444100000000	-55.09720000000000	716.56936599999995	-47.87601700000000	0.15129500000000	0.00000000000000	-0.09415100000000	0.00000000000000	-8.78522800000000	0.00000000000000	0.00000000000000	-23.83217700000000	0.00000000000000	
10.45162700000000	4.65985800000000	186.35050300000000	-8.11371200000000	0.38647600000000	0.00000000000000	0.10470600000000	-55.87587500000000	711.80162399999995	-47.32880100000000	0.15049900000000	0.00000000000000	-0.09398900000000	0.00000000000000	-8.57945900000000	0.00000000000000	0.00000000000000	-23.75063700000000	0.00000000000000	
10.45329200000000	5.95670100000000	195.53827000000001	-7.51444300000000	0.38873500000000	0.00000000000000	0.10495800000000	-56.65606600000000	706.86825299999998	-46.76184700000000	0.14972500000000	0.00000000000000	-0.09382300000000	0.00000000000000	-8.35827200000000	0.00000000000000	0.00000000000000	-23.66770400000000	0.00000000000000	
10.45497100000000	7.28811200000000	204.92989299999999	-6.88675200000000	0.39091100000000	0.00000000000000	0.10520000000000	-57.43551000000000	701.76610700000003	-46.17500400000000	0.14897300000000	0.00000000000000	-0.09365200000000	0.00000000000000	-8.12068100000000	0.00000000000000	0.00000000000000	-23.58295400000000	0.00000000000000	
